<svg width="32" height="32" viewBox="0 0 32 32" fill="none" xmlns="http://www.w3.org/2000/svg">
<path fill-rule="evenodd" clip-rule="evenodd" d="M26.3893 7.21961C27.5361 7.52769 28.4433 8.43485 28.7514 9.58161C29.3162 11.6698 29.3333 16.0001 29.3333 16.0001C29.3333 16.0001 29.3333 20.3476 28.7685 22.4186C28.4604 23.5654 27.5532 24.4725 26.4065 24.7806C24.3354 25.3454 16 25.3454 16 25.3454C16 25.3454 7.66449 25.3454 5.59346 24.7806C4.44668 24.4725 3.53954 23.5654 3.23145 22.4186C2.66663 20.3304 2.66663 16.0001 2.66663 16.0001C2.66663 16.0001 2.66663 11.6698 3.21434 9.59873C3.52242 8.45196 4.42957 7.54482 5.57634 7.23673C7.64737 6.6719 15.9828 6.65479 15.9828 6.65479C15.9828 6.65479 24.3183 6.65479 26.3893 7.21961ZM20.2447 16.0001L13.3299 20.0052V11.995L20.2447 16.0001Z" fill="black"/>
</svg>
