<svg width="34" height="34" viewBox="0 0 34 34" fill="none" xmlns="http://www.w3.org/2000/svg">
<path fill-rule="evenodd" clip-rule="evenodd" d="M12.366 12.366C13.595 11.137 15.2619 10.4465 17 10.4465C18.7381 10.4465 20.405 11.137 21.634 12.366C22.863 13.595 23.5535 15.2619 23.5535 17C23.5535 18.7381 22.863 20.405 21.634 21.634C20.405 22.863 18.7381 23.5535 17 23.5535C15.2619 23.5535 13.595 22.863 12.366 21.634C11.137 20.405 10.4465 18.7381 10.4465 17C10.4465 15.2619 11.137 13.595 12.366 12.366ZM15.372 20.9304C15.8881 21.1442 16.4413 21.2543 17 21.2543C18.1283 21.2543 19.2104 20.806 20.0082 20.0082C20.806 19.2104 21.2542 18.1283 21.2542 17C21.2542 15.8717 20.806 14.7896 20.0082 13.9918C19.2104 13.194 18.1283 12.7458 17 12.7458C16.4413 12.7458 15.8881 12.8558 15.372 13.0696C14.8558 13.2834 14.3868 13.5968 13.9918 13.9918C13.5967 14.3868 13.2834 14.8558 13.0696 15.372C12.8558 15.8881 12.7457 16.4413 12.7457 17C12.7457 17.5587 12.8558 18.1119 13.0696 18.628C13.2834 19.1442 13.5967 19.6132 13.9918 20.0082C14.3868 20.4033 14.8558 20.7166 15.372 20.9304Z" fill="black"/>
<path d="M25.0063 11.4229C25.2968 11.1324 25.46 10.7384 25.46 10.3275C25.46 9.91665 25.2968 9.52262 25.0063 9.23211C24.7158 8.94159 24.3218 8.77838 23.9109 8.77838C23.5001 8.77838 23.106 8.94159 22.8155 9.23211C22.525 9.52262 22.3618 9.91665 22.3618 10.3275C22.3618 10.7384 22.525 11.1324 22.8155 11.4229C23.106 11.7134 23.5001 11.8766 23.9109 11.8766C24.3218 11.8766 24.7158 11.7134 25.0063 11.4229Z" fill="black"/>
<path fill-rule="evenodd" clip-rule="evenodd" d="M11.7436 4.3265C13.1036 4.26445 13.5371 4.25 17 4.25C20.4638 4.25 20.8964 4.2653 22.2556 4.3265C23.613 4.38855 24.5412 4.6053 25.3521 4.91895C26.2025 5.23928 26.9729 5.74109 27.6097 6.38945C28.2583 7.02637 28.7601 7.7971 29.0802 8.6479C29.3955 9.4588 29.6115 10.3862 29.6735 11.7436C29.7356 13.1036 29.75 13.5371 29.75 17C29.75 20.4629 29.7356 20.8964 29.6735 22.2564C29.6115 23.6138 29.3955 24.5412 29.081 25.3521C28.7607 26.2025 28.2589 26.9729 27.6106 27.6097C26.9731 28.2591 26.2021 28.7606 25.3521 29.0802C24.5412 29.3955 23.6138 29.6115 22.2564 29.6735C20.8964 29.7356 20.4629 29.75 17 29.75C13.5371 29.75 13.1036 29.7356 11.7436 29.6735C10.3862 29.6115 9.4588 29.3955 8.6479 29.081C7.79748 28.7607 7.02708 28.2589 6.3903 27.6106C5.7409 26.9731 5.2394 26.2021 4.9198 25.3521C4.60445 24.5412 4.38855 23.6138 4.3265 22.2564C4.26445 20.8964 4.25 20.4638 4.25 17C4.25 13.5363 4.2653 13.1036 4.3265 11.7445C4.38855 10.387 4.6053 9.4588 4.91895 8.6479C5.23928 7.79747 5.74109 7.02706 6.38945 6.3903C7.02695 5.7409 7.7979 5.2394 8.6479 4.9198C9.4588 4.60445 10.3862 4.38855 11.7436 4.3265ZM22.1527 6.6215C20.808 6.5603 20.4043 6.54755 17 6.54755C13.5957 6.54755 13.192 6.5603 11.8473 6.6215C10.6046 6.67845 9.9297 6.88585 9.48005 7.06095C8.9262 7.26493 8.42515 7.59054 8.0138 8.0138C7.5684 8.46005 7.2913 8.88505 7.06095 9.48005C6.885 9.9297 6.67845 10.6046 6.6215 11.8473C6.5603 13.192 6.54755 13.5957 6.54755 17C6.54755 20.4043 6.5603 20.808 6.6215 22.1527C6.67845 23.3954 6.88585 24.0703 7.06095 24.52C7.26506 25.0737 7.59065 25.5748 8.0138 25.9862C8.42521 26.4094 8.92624 26.735 9.48005 26.9391C9.9297 27.115 10.6046 27.3216 11.8473 27.3785C13.192 27.4397 13.5949 27.4524 17 27.4524C20.4051 27.4524 20.808 27.4397 22.1527 27.3785C23.3954 27.3216 24.0703 27.1141 24.52 26.9391C25.0738 26.7351 25.5749 26.4095 25.9862 25.9862C26.4094 25.5748 26.735 25.0738 26.9391 24.52C27.115 24.0703 27.3216 23.3954 27.3785 22.1527C27.4397 20.808 27.4524 20.4043 27.4524 17C27.4524 13.5957 27.4397 13.192 27.3785 11.8473C27.3216 10.6046 27.1141 9.9297 26.9391 9.48005C26.7087 8.88505 26.4325 8.46005 25.9862 8.0138C25.54 7.5684 25.115 7.2913 24.52 7.06095C24.0703 6.885 23.3954 6.67845 22.1527 6.6215Z" fill="black"/>
</svg>
