<svg width="29" height="11" viewBox="0 0 29 11" fill="none" xmlns="http://www.w3.org/2000/svg">
<path d="M6.17676 0C7.83988 0 9.32936 0.739663 10.3379 1.90625C9.50479 2.87025 9 4.1259 9 5.5C9 6.87384 9.50508 8.12884 10.3379 9.09277C9.32935 10.2597 7.84015 11 6.17676 11C3.13941 10.9997 0.676758 8.53741 0.676758 5.5C0.676761 2.4626 3.13941 0.000263855 6.17676 0ZM14.5 0C16.163 0.000142919 17.6526 0.739715 18.6611 1.90625C17.8279 2.87028 17.3232 4.12579 17.3232 5.5C17.3232 6.87395 17.8282 8.12881 18.6611 9.09277C17.6526 10.2596 16.1632 10.9999 14.5 11C12.8366 10.9999 11.3463 10.2599 10.3379 9.09277C11.171 8.12878 11.6768 6.87407 11.6768 5.5C11.6768 4.12567 11.1712 2.87032 10.3379 1.90625C11.3463 0.739496 12.8368 0.00014312 14.5 0ZM22.8232 0C25.8606 0.000257943 28.3232 2.46259 28.3232 5.5C28.3232 8.53741 25.8606 10.9997 22.8232 11C21.1596 11 19.6697 10.26 18.6611 9.09277C19.4944 8.12876 20 6.87413 20 5.5C20 4.1256 19.4947 2.87033 18.6611 1.90625C19.6697 0.739381 21.1599 0 22.8232 0Z" fill="black"/>
</svg>
