<svg width="26" height="26" viewBox="0 0 26 26" fill="none" xmlns="http://www.w3.org/2000/svg">
<path d="M12.6543 0C19.6793 0 25.375 5.69565 25.375 12.7207C25.3748 19.7456 19.6792 25.4404 12.6543 25.4404C6.74547 25.4402 1.77792 21.4109 0.348633 15.9502L4.72363 17.665C5.07157 19.2228 6.46236 20.3867 8.125 20.3867C9.9407 20.3864 11.4301 18.9979 11.5928 17.2246L15.9316 14.1133C15.943 14.1134 15.9544 14.1143 15.9658 14.1143C18.5638 14.114 20.6697 12.0081 20.6699 9.41016C20.6699 6.81199 18.5639 4.70531 15.9658 4.70508C13.3676 4.70519 11.2607 6.81192 11.2607 9.41016C11.2607 9.42711 11.2615 9.44403 11.2617 9.46094L8.43652 13.4316C8.33388 13.4225 8.23001 13.417 8.125 13.417C7.4577 13.417 6.83363 13.6044 6.30371 13.9297L0 11.4209C0.650863 5.00639 6.06814 0.000227573 12.6543 0ZM8.125 14.2881C9.56816 14.2883 10.7381 15.4592 10.7383 16.9023C10.7381 18.3455 9.56816 19.5154 8.125 19.5156C7.10745 19.5156 6.22686 18.9338 5.79492 18.085L6.44336 18.3389C6.80521 18.6386 7.26983 18.8193 7.77637 18.8193C8.93082 18.8191 9.86693 17.883 9.86719 16.7285C9.86719 15.7115 9.14071 14.8646 8.17871 14.6768L7.43945 14.3818C7.6581 14.3225 7.88761 14.2881 8.125 14.2881ZM15.9658 6.27344C17.6978 6.27369 19.1016 7.67811 19.1016 9.41016C19.1013 11.142 17.6977 12.5456 15.9658 12.5459C14.2339 12.5458 12.8293 11.1421 12.8291 9.41016C12.8291 7.67802 14.2337 6.27355 15.9658 6.27344ZM15.9658 6.9707C14.6186 6.9707 13.5264 8.06289 13.5264 9.41016C13.5266 10.7572 14.6187 11.8496 15.9658 11.8496C17.3128 11.8495 18.405 10.7571 18.4053 9.41016C18.4053 8.06297 17.313 6.97084 15.9658 6.9707Z" fill="black"/>
</svg>
