<svg width="26" height="26" viewBox="0 0 26 26" fill="none" xmlns="http://www.w3.org/2000/svg">
<g clip-path="url(#clip0_22_38)">
<path fill-rule="evenodd" clip-rule="evenodd" d="M13 23.4722C9.8644 23.4722 7.76699 23.4669 6.20455 23.2568C4.71481 23.0565 4.09517 22.7127 3.69121 22.3088C3.28725 21.9049 2.9435 21.2852 2.74321 19.7955C2.53314 18.233 2.52778 16.1356 2.52778 13C2.52778 9.8644 2.53314 7.76699 2.74321 6.20455C2.9435 4.71481 3.28725 4.09517 3.69121 3.69121C4.09517 3.28725 4.71481 2.9435 6.20455 2.74321C7.76699 2.53314 9.8644 2.52778 13 2.52778C16.1356 2.52778 18.233 2.53314 19.7955 2.74321C21.2852 2.9435 21.9049 3.28725 22.3088 3.69121C22.7127 4.09517 23.0565 4.71481 23.2568 6.20455C23.4669 7.76699 23.4722 9.8644 23.4722 13C23.4722 16.1356 23.4669 18.233 23.2568 19.7955C23.0565 21.2852 22.7127 21.9049 22.3088 22.3088C21.9049 22.7127 21.2852 23.0565 19.7955 23.2568C18.233 23.4669 16.1356 23.4722 13 23.4722ZM0 13C0 6.87174 0 3.80761 1.90381 1.90381C3.80761 0 6.87174 0 13 0C19.1283 0 22.1924 0 24.0962 1.90381C26 3.80761 26 6.87174 26 13C26 19.1283 26 22.1924 24.0962 24.0962C22.1924 26 19.1283 26 13 26C6.87174 26 3.80761 26 1.90381 24.0962C0 22.1924 0 19.1283 0 13ZM11.5204 8.66667V15.212C10.4086 14.8092 7.86724 13.3995 7.70842 8.66667H5.06123C4.9024 13.7016 8.07907 18.4344 14.0617 18.0316V14.6078C15.0147 14.675 17.1748 15.4537 18.1913 18.0316H20.9444C20.9444 16.5211 18.7208 13.8526 16.9207 13.2988C17.9972 12.7617 20.0973 10.9827 20.415 8.66667H17.7678C17.3796 9.77434 16.0948 12.0501 14.0617 12.2918V8.66667H11.5204Z" fill="black"/>
</g>
<defs>
<clipPath id="clip0_22_38">
<rect width="26" height="26" fill="white"/>
</clipPath>
</defs>
</svg>
